<mxfile host="app.diagrams.net" modified="2022-06-14T23:52:12.876Z" agent="5.0 (Windows)" etag="GFxsHI-Sph534kPZGJZ_" version="19.0.0" type="github">
  <diagram id="wxT67-HHqTX9DIjH9o3Z" name="Pagina-1">
    <mxGraphModel dx="939" dy="537" grid="1" gridSize="10" guides="1" tooltips="1" connect="1" arrows="1" fold="1" page="1" pageScale="1" pageWidth="1169" pageHeight="827" math="1" shadow="0">
      <root>
        <mxCell id="0" />
        <mxCell id="1" parent="0" />
        <mxCell id="j3ikcFKSS2i44kYI19ll-3" value="" style="edgeStyle=orthogonalEdgeStyle;rounded=0;orthogonalLoop=1;jettySize=auto;html=1;fontSize=23;fontColor=#FFFFFF;endArrow=block;endFill=1;" parent="1" source="j3ikcFKSS2i44kYI19ll-1" target="j3ikcFKSS2i44kYI19ll-2" edge="1">
          <mxGeometry relative="1" as="geometry">
            <Array as="points">
              <mxPoint x="500" y="240" />
              <mxPoint x="140" y="240" />
            </Array>
          </mxGeometry>
        </mxCell>
        <mxCell id="j3ikcFKSS2i44kYI19ll-7" style="edgeStyle=orthogonalEdgeStyle;rounded=0;orthogonalLoop=1;jettySize=auto;html=1;entryX=0.5;entryY=0;entryDx=0;entryDy=0;fontSize=23;fontColor=#FFFFFF;endArrow=block;endFill=1;" parent="1" source="j3ikcFKSS2i44kYI19ll-1" target="j3ikcFKSS2i44kYI19ll-4" edge="1">
          <mxGeometry relative="1" as="geometry">
            <Array as="points">
              <mxPoint x="500" y="240" />
              <mxPoint x="380" y="240" />
            </Array>
          </mxGeometry>
        </mxCell>
        <mxCell id="j3ikcFKSS2i44kYI19ll-8" style="edgeStyle=orthogonalEdgeStyle;rounded=0;orthogonalLoop=1;jettySize=auto;html=1;entryX=0.5;entryY=0;entryDx=0;entryDy=0;fontSize=23;fontColor=#FFFFFF;endArrow=block;endFill=1;" parent="1" source="j3ikcFKSS2i44kYI19ll-1" target="j3ikcFKSS2i44kYI19ll-5" edge="1">
          <mxGeometry relative="1" as="geometry">
            <Array as="points">
              <mxPoint x="500" y="240" />
              <mxPoint x="620" y="240" />
            </Array>
          </mxGeometry>
        </mxCell>
        <mxCell id="j3ikcFKSS2i44kYI19ll-9" style="edgeStyle=orthogonalEdgeStyle;rounded=0;orthogonalLoop=1;jettySize=auto;html=1;entryX=0.5;entryY=0;entryDx=0;entryDy=0;fontSize=23;fontColor=#FFFFFF;endArrow=block;endFill=1;" parent="1" target="j3ikcFKSS2i44kYI19ll-6" edge="1">
          <mxGeometry relative="1" as="geometry">
            <mxPoint x="499.9999999999999" y="202" as="sourcePoint" />
            <mxPoint x="860" y="252" as="targetPoint" />
            <Array as="points">
              <mxPoint x="500" y="240" />
              <mxPoint x="860" y="240" />
            </Array>
          </mxGeometry>
        </mxCell>
        <mxCell id="j3ikcFKSS2i44kYI19ll-11" value="di" style="edgeLabel;html=1;align=center;verticalAlign=middle;resizable=0;points=[];fontSize=12;fontColor=#000000;" parent="j3ikcFKSS2i44kYI19ll-9" vertex="1" connectable="0">
          <mxGeometry x="-0.9038" y="-1" relative="1" as="geometry">
            <mxPoint y="2" as="offset" />
          </mxGeometry>
        </mxCell>
        <mxCell id="j3ikcFKSS2i44kYI19ll-15" style="rounded=0;orthogonalLoop=1;jettySize=auto;html=1;entryX=0;entryY=0.5;entryDx=0;entryDy=0;fontSize=11;fontColor=#000000;endArrow=block;endFill=1;exitX=1;exitY=0.5;exitDx=0;exitDy=0;" parent="1" source="j3ikcFKSS2i44kYI19ll-1" target="j3ikcFKSS2i44kYI19ll-14" edge="1">
          <mxGeometry relative="1" as="geometry" />
        </mxCell>
        <mxCell id="j3ikcFKSS2i44kYI19ll-24" style="rounded=0;orthogonalLoop=1;jettySize=auto;html=1;entryX=1;entryY=0.5;entryDx=0;entryDy=0;fontSize=10;fontColor=#000000;endArrow=block;endFill=1;exitX=0;exitY=0.5;exitDx=0;exitDy=0;" parent="1" source="j3ikcFKSS2i44kYI19ll-1" target="j3ikcFKSS2i44kYI19ll-22" edge="1">
          <mxGeometry relative="1" as="geometry" />
        </mxCell>
        <mxCell id="j3ikcFKSS2i44kYI19ll-1" value="&lt;font color=&quot;#FFFFFF&quot;&gt;&lt;b&gt;&lt;font style=&quot;font-size: 23px;&quot;&gt;AMPLIFICATORI&lt;/font&gt;&lt;/b&gt;&lt;/font&gt;" style="whiteSpace=wrap;html=1;fontSize=9;fillColor=#0000CC;" parent="1" vertex="1">
          <mxGeometry x="400" y="150" width="200" height="60" as="geometry" />
        </mxCell>
        <mxCell id="j3ikcFKSS2i44kYI19ll-2" value="TENSIONE" style="whiteSpace=wrap;html=1;fontSize=9;fillColor=#66FF66;strokeColor=#2D7600;" parent="1" vertex="1">
          <mxGeometry x="80" y="270" width="120" height="20" as="geometry" />
        </mxCell>
        <mxCell id="j3ikcFKSS2i44kYI19ll-4" value="CORRENTE" style="whiteSpace=wrap;html=1;fontSize=9;fillColor=#66FF66;strokeColor=#2D7600;" parent="1" vertex="1">
          <mxGeometry x="320" y="270" width="120" height="20" as="geometry" />
        </mxCell>
        <mxCell id="j3ikcFKSS2i44kYI19ll-5" value="TRANSCONDUTTANZA" style="whiteSpace=wrap;html=1;fontSize=9;fillColor=#66FF66;strokeColor=#2D7600;" parent="1" vertex="1">
          <mxGeometry x="560" y="270" width="120" height="20" as="geometry" />
        </mxCell>
        <mxCell id="j3ikcFKSS2i44kYI19ll-6" value="TRANSRESISTENZA" style="whiteSpace=wrap;html=1;fontSize=9;fillColor=#66FF66;strokeColor=#2D7600;" parent="1" vertex="1">
          <mxGeometry x="800" y="270" width="120" height="20" as="geometry" />
        </mxCell>
        <mxCell id="j3ikcFKSS2i44kYI19ll-13" value="" style="shape=image;verticalLabelPosition=bottom;labelBackgroundColor=default;verticalAlign=top;aspect=fixed;imageAspect=0;image=https://raw.githubusercontent.com/BCPTe/SETM/main/images/06/amplificatore_simbolo_andamento.png;" parent="1" vertex="1">
          <mxGeometry x="400" y="99.8" width="200" height="48.84" as="geometry" />
        </mxCell>
        <mxCell id="j3ikcFKSS2i44kYI19ll-19" style="edgeStyle=orthogonalEdgeStyle;rounded=0;orthogonalLoop=1;jettySize=auto;html=1;entryX=0;entryY=0.5;entryDx=0;entryDy=0;fontSize=10;fontColor=#000000;endArrow=block;endFill=1;" parent="1" source="j3ikcFKSS2i44kYI19ll-14" target="j3ikcFKSS2i44kYI19ll-16" edge="1">
          <mxGeometry relative="1" as="geometry" />
        </mxCell>
        <mxCell id="j3ikcFKSS2i44kYI19ll-20" style="edgeStyle=orthogonalEdgeStyle;rounded=0;orthogonalLoop=1;jettySize=auto;html=1;entryX=0;entryY=0.5;entryDx=0;entryDy=0;fontSize=10;fontColor=#000000;endArrow=block;endFill=1;" parent="1" source="j3ikcFKSS2i44kYI19ll-14" target="j3ikcFKSS2i44kYI19ll-17" edge="1">
          <mxGeometry relative="1" as="geometry" />
        </mxCell>
        <mxCell id="j3ikcFKSS2i44kYI19ll-21" style="edgeStyle=orthogonalEdgeStyle;rounded=0;orthogonalLoop=1;jettySize=auto;html=1;entryX=0;entryY=0.5;entryDx=0;entryDy=0;fontSize=10;fontColor=#000000;endArrow=block;endFill=1;" parent="1" source="j3ikcFKSS2i44kYI19ll-14" target="j3ikcFKSS2i44kYI19ll-18" edge="1">
          <mxGeometry relative="1" as="geometry" />
        </mxCell>
        <mxCell id="j3ikcFKSS2i44kYI19ll-14" value="&lt;div&gt;&lt;font style=&quot;font-size: 11px;&quot;&gt;moltiplica il segnale d&#39;ingresso per una costante.&lt;/font&gt;&lt;/div&gt;" style="whiteSpace=wrap;html=1;fontSize=12;fontColor=#333333;strokeColor=#666666;fillColor=#f5f5f5;" parent="1" vertex="1">
          <mxGeometry x="660" y="80" width="160" height="40" as="geometry" />
        </mxCell>
        <mxCell id="j3ikcFKSS2i44kYI19ll-16" value="&lt;font style=&quot;font-size: 10px;&quot;&gt;come &lt;b&gt;primo elemento di una catena di acquisizione&lt;/b&gt; per aumentare la dinamica di un segnale e renderlo più immune al rumore degli stadi successivi → Low Noise Amplifier (LNA)&lt;br&gt;&lt;/font&gt;" style="whiteSpace=wrap;html=1;fontSize=11;fontColor=#000000;strokeColor=#2D7600;fillColor=#66FF66;" parent="1" vertex="1">
          <mxGeometry x="900" y="10" width="250" height="60" as="geometry" />
        </mxCell>
        <mxCell id="j3ikcFKSS2i44kYI19ll-17" value="&lt;div&gt;come &lt;b&gt;sotto-blocco funzionale&lt;/b&gt; in funzioni analogiche più complesse&lt;/div&gt;" style="whiteSpace=wrap;html=1;fontSize=11;fontColor=#000000;strokeColor=#2D7600;fillColor=#66FF66;" parent="1" vertex="1">
          <mxGeometry x="900" y="85" width="250" height="30" as="geometry" />
        </mxCell>
        <mxCell id="j3ikcFKSS2i44kYI19ll-18" value="per &lt;b&gt;fornire &lt;/b&gt;ai segnali &lt;b&gt;la potenza&lt;/b&gt; necessaria per pilotare gli attuatori → Amplificatori di potenza" style="whiteSpace=wrap;html=1;fontSize=11;fontColor=#000000;strokeColor=#2D7600;fillColor=#66FF66;" parent="1" vertex="1">
          <mxGeometry x="900" y="130" width="250" height="30" as="geometry" />
        </mxCell>
        <mxCell id="j3ikcFKSS2i44kYI19ll-22" value="è un doppio bipolo unidirezionale" style="whiteSpace=wrap;html=1;fontSize=10;fontColor=#333333;strokeColor=#666666;fillColor=#f5f5f5;" parent="1" vertex="1">
          <mxGeometry x="182.11" y="60" width="120" height="30" as="geometry" />
        </mxCell>
        <mxCell id="j3ikcFKSS2i44kYI19ll-23" value="" style="shape=image;verticalLabelPosition=bottom;labelBackgroundColor=default;verticalAlign=top;aspect=fixed;imageAspect=0;image=https://raw.githubusercontent.com/BCPTe/SETM/main/images/06/amplificatore_simbolo_circuitale.png;imageBorder=#666666;sketch=0;" parent="1" vertex="1">
          <mxGeometry x="183.16000000000003" y="92" width="117.89" height="66.44" as="geometry" />
        </mxCell>
        <mxCell id="j3ikcFKSS2i44kYI19ll-36" style="edgeStyle=none;rounded=0;orthogonalLoop=1;jettySize=auto;html=1;entryX=0.5;entryY=0;entryDx=0;entryDy=0;fontSize=8;fontColor=#000000;endArrow=block;endFill=1;" parent="1" source="j3ikcFKSS2i44kYI19ll-27" target="j3ikcFKSS2i44kYI19ll-34" edge="1">
          <mxGeometry relative="1" as="geometry" />
        </mxCell>
        <mxCell id="j3ikcFKSS2i44kYI19ll-27" value="&lt;div style=&quot;font-size: 10px;&quot;&gt;$$v_{out}(t) = R_m i_{in}(t)$$&lt;/div&gt;" style="text;whiteSpace=wrap;html=1;fontSize=10;fontColor=#000000;verticalAlign=middle;align=center;" parent="1" vertex="1">
          <mxGeometry x="800" y="300" width="120" height="20" as="geometry" />
        </mxCell>
        <mxCell id="j3ikcFKSS2i44kYI19ll-38" style="edgeStyle=none;rounded=0;orthogonalLoop=1;jettySize=auto;html=1;entryX=0.5;entryY=0;entryDx=0;entryDy=0;fontSize=8;fontColor=#000000;endArrow=block;endFill=1;" parent="1" source="j3ikcFKSS2i44kYI19ll-28" target="j3ikcFKSS2i44kYI19ll-31" edge="1">
          <mxGeometry relative="1" as="geometry" />
        </mxCell>
        <mxCell id="j3ikcFKSS2i44kYI19ll-28" value="$$i_{out}(t) = A_i i_{in}(t)$$" style="text;whiteSpace=wrap;html=1;fontSize=10;fontColor=#000000;verticalAlign=middle;align=center;" parent="1" vertex="1">
          <mxGeometry x="320" y="300" width="120" height="20" as="geometry" />
        </mxCell>
        <mxCell id="j3ikcFKSS2i44kYI19ll-37" style="edgeStyle=none;rounded=0;orthogonalLoop=1;jettySize=auto;html=1;entryX=0.5;entryY=0;entryDx=0;entryDy=0;fontSize=8;fontColor=#000000;endArrow=block;endFill=1;" parent="1" source="j3ikcFKSS2i44kYI19ll-29" target="j3ikcFKSS2i44kYI19ll-32" edge="1">
          <mxGeometry relative="1" as="geometry" />
        </mxCell>
        <mxCell id="j3ikcFKSS2i44kYI19ll-29" value="$$i_{out}(t) = g_m v_{in}(t)$$" style="text;whiteSpace=wrap;html=1;fontSize=10;fontColor=#000000;verticalAlign=middle;align=center;" parent="1" vertex="1">
          <mxGeometry x="560" y="300" width="120" height="20" as="geometry" />
        </mxCell>
        <mxCell id="j3ikcFKSS2i44kYI19ll-41" style="edgeStyle=none;rounded=0;orthogonalLoop=1;jettySize=auto;html=1;entryX=0;entryY=0.5;entryDx=0;entryDy=0;fontSize=8;fontColor=#000000;endArrow=block;endFill=1;" parent="1" source="j3ikcFKSS2i44kYI19ll-30" target="j3ikcFKSS2i44kYI19ll-40" edge="1">
          <mxGeometry relative="1" as="geometry" />
        </mxCell>
        <mxCell id="j3ikcFKSS2i44kYI19ll-30" value="\(A_v\) → amplificazione di tensione, adimensionato" style="whiteSpace=wrap;html=1;sketch=0;fontSize=8;fontColor=#333333;strokeColor=#666666;fillColor=#f5f5f5;" parent="1" vertex="1">
          <mxGeometry x="80" y="350" width="120" height="30" as="geometry" />
        </mxCell>
        <mxCell id="j3ikcFKSS2i44kYI19ll-42" style="edgeStyle=none;rounded=0;orthogonalLoop=1;jettySize=auto;html=1;entryX=0.25;entryY=0;entryDx=0;entryDy=0;fontSize=8;fontColor=#000000;endArrow=block;endFill=1;" parent="1" source="j3ikcFKSS2i44kYI19ll-31" target="j3ikcFKSS2i44kYI19ll-40" edge="1">
          <mxGeometry relative="1" as="geometry" />
        </mxCell>
        <mxCell id="j3ikcFKSS2i44kYI19ll-31" value="\(A_i\) → amplificazione di corrente, adimensionato" style="whiteSpace=wrap;html=1;sketch=0;fontSize=8;fontColor=#333333;strokeColor=#666666;fillColor=#f5f5f5;" parent="1" vertex="1">
          <mxGeometry x="320" y="350" width="120" height="30" as="geometry" />
        </mxCell>
        <mxCell id="j3ikcFKSS2i44kYI19ll-43" style="edgeStyle=none;rounded=0;orthogonalLoop=1;jettySize=auto;html=1;fontSize=8;fontColor=#000000;endArrow=block;endFill=1;entryX=0.75;entryY=0;entryDx=0;entryDy=0;" parent="1" source="j3ikcFKSS2i44kYI19ll-32" target="j3ikcFKSS2i44kYI19ll-40" edge="1">
          <mxGeometry relative="1" as="geometry" />
        </mxCell>
        <mxCell id="j3ikcFKSS2i44kYI19ll-32" value="\([g_m] = \Omega^{-1}\) → transconduttanza" style="whiteSpace=wrap;html=1;sketch=0;fontSize=8;fontColor=#333333;strokeColor=#666666;fillColor=#f5f5f5;" parent="1" vertex="1">
          <mxGeometry x="560" y="350" width="120" height="30" as="geometry" />
        </mxCell>
        <mxCell id="j3ikcFKSS2i44kYI19ll-39" style="edgeStyle=none;rounded=0;orthogonalLoop=1;jettySize=auto;html=1;entryX=0.5;entryY=0;entryDx=0;entryDy=0;fontSize=8;fontColor=#000000;endArrow=block;endFill=1;" parent="1" source="j3ikcFKSS2i44kYI19ll-33" target="j3ikcFKSS2i44kYI19ll-30" edge="1">
          <mxGeometry relative="1" as="geometry" />
        </mxCell>
        <mxCell id="j3ikcFKSS2i44kYI19ll-33" value="&lt;div style=&quot;font-size: 10px;&quot;&gt;$$v_{out}(t) = A_v v_{in}(t)$$&lt;/div&gt;" style="text;whiteSpace=wrap;html=1;fontSize=10;fontColor=#000000;verticalAlign=middle;align=center;" parent="1" vertex="1">
          <mxGeometry x="80" y="300" width="120" height="20" as="geometry" />
        </mxCell>
        <mxCell id="j3ikcFKSS2i44kYI19ll-44" style="edgeStyle=none;rounded=0;orthogonalLoop=1;jettySize=auto;html=1;entryX=1;entryY=0.5;entryDx=0;entryDy=0;fontSize=8;fontColor=#000000;endArrow=block;endFill=1;" parent="1" source="j3ikcFKSS2i44kYI19ll-34" target="j3ikcFKSS2i44kYI19ll-40" edge="1">
          <mxGeometry relative="1" as="geometry" />
        </mxCell>
        <mxCell id="j3ikcFKSS2i44kYI19ll-34" value="\([R_m] = \Omega\) → transresistenza" style="whiteSpace=wrap;html=1;sketch=0;fontSize=8;fontColor=#333333;strokeColor=#666666;fillColor=#f5f5f5;" parent="1" vertex="1">
          <mxGeometry x="800" y="350" width="120" height="30" as="geometry" />
        </mxCell>
        <mxCell id="j3ikcFKSS2i44kYI19ll-40" value="&lt;div style=&quot;font-size: 11px;&quot;&gt;&lt;font style=&quot;font-size: 11px;&quot;&gt;idealmente corrispondono ai generatori controllati lineari&lt;/font&gt;&lt;/div&gt;" style="whiteSpace=wrap;html=1;sketch=0;fontSize=8;strokeColor=#6c8ebf;fillColor=#dae8fc;" parent="1" vertex="1">
          <mxGeometry x="400" y="430" width="160" height="40" as="geometry" />
        </mxCell>
        <mxCell id="j3ikcFKSS2i44kYI19ll-53" style="edgeStyle=orthogonalEdgeStyle;rounded=0;orthogonalLoop=1;jettySize=auto;html=1;entryX=0;entryY=0.5;entryDx=0;entryDy=0;fontSize=11;fontColor=#000000;endArrow=block;endFill=1;" parent="1" source="j3ikcFKSS2i44kYI19ll-45" target="j3ikcFKSS2i44kYI19ll-46" edge="1">
          <mxGeometry relative="1" as="geometry" />
        </mxCell>
        <mxCell id="j3ikcFKSS2i44kYI19ll-54" style="edgeStyle=orthogonalEdgeStyle;rounded=0;orthogonalLoop=1;jettySize=auto;html=1;entryX=0;entryY=0.5;entryDx=0;entryDy=0;fontSize=11;fontColor=#000000;endArrow=block;endFill=1;" parent="1" source="j3ikcFKSS2i44kYI19ll-45" target="j3ikcFKSS2i44kYI19ll-47" edge="1">
          <mxGeometry relative="1" as="geometry" />
        </mxCell>
        <mxCell id="j3ikcFKSS2i44kYI19ll-45" value="PER GLI AMPLIFICATORI CON" style="whiteSpace=wrap;html=1;sketch=0;fontSize=11;fillColor=#fff2cc;strokeColor=#d6b656;" parent="1" vertex="1">
          <mxGeometry x="70" y="630" width="150" height="40" as="geometry" />
        </mxCell>
        <mxCell id="j3ikcFKSS2i44kYI19ll-55" style="edgeStyle=orthogonalEdgeStyle;rounded=0;orthogonalLoop=1;jettySize=auto;html=1;entryX=0;entryY=0.5;entryDx=0;entryDy=0;fontSize=11;fontColor=#000000;endArrow=block;endFill=1;" parent="1" source="j3ikcFKSS2i44kYI19ll-46" target="j3ikcFKSS2i44kYI19ll-48" edge="1">
          <mxGeometry relative="1" as="geometry" />
        </mxCell>
        <mxCell id="j3ikcFKSS2i44kYI19ll-56" style="edgeStyle=orthogonalEdgeStyle;rounded=0;orthogonalLoop=1;jettySize=auto;html=1;entryX=0;entryY=0.5;entryDx=0;entryDy=0;fontSize=11;fontColor=#000000;endArrow=block;endFill=1;" parent="1" source="j3ikcFKSS2i44kYI19ll-46" target="j3ikcFKSS2i44kYI19ll-49" edge="1">
          <mxGeometry relative="1" as="geometry" />
        </mxCell>
        <mxCell id="j3ikcFKSS2i44kYI19ll-46" value="INGRESSO IN" style="whiteSpace=wrap;html=1;sketch=0;fontSize=11;strokeColor=#82b366;fillColor=#d5e8d4;" parent="1" vertex="1">
          <mxGeometry x="290" y="550" width="120" height="20" as="geometry" />
        </mxCell>
        <mxCell id="j3ikcFKSS2i44kYI19ll-57" style="edgeStyle=orthogonalEdgeStyle;rounded=0;orthogonalLoop=1;jettySize=auto;html=1;entryX=0;entryY=0.5;entryDx=0;entryDy=0;fontSize=11;fontColor=#000000;endArrow=block;endFill=1;" parent="1" source="j3ikcFKSS2i44kYI19ll-47" target="j3ikcFKSS2i44kYI19ll-50" edge="1">
          <mxGeometry relative="1" as="geometry" />
        </mxCell>
        <mxCell id="j3ikcFKSS2i44kYI19ll-58" style="edgeStyle=orthogonalEdgeStyle;rounded=0;orthogonalLoop=1;jettySize=auto;html=1;entryX=0;entryY=0.5;entryDx=0;entryDy=0;fontSize=11;fontColor=#000000;endArrow=block;endFill=1;" parent="1" source="j3ikcFKSS2i44kYI19ll-47" target="j3ikcFKSS2i44kYI19ll-51" edge="1">
          <mxGeometry relative="1" as="geometry" />
        </mxCell>
        <mxCell id="j3ikcFKSS2i44kYI19ll-47" value="USCITA IN" style="whiteSpace=wrap;html=1;sketch=0;fontSize=11;strokeColor=#b85450;fillColor=#f8cecc;" parent="1" vertex="1">
          <mxGeometry x="290" y="730" width="120" height="20" as="geometry" />
        </mxCell>
        <mxCell id="j3ikcFKSS2i44kYI19ll-62" style="edgeStyle=orthogonalEdgeStyle;rounded=0;orthogonalLoop=1;jettySize=auto;html=1;entryX=0;entryY=0.5;entryDx=0;entryDy=0;fontSize=11;fontColor=#000000;endArrow=block;endFill=1;" parent="1" source="j3ikcFKSS2i44kYI19ll-48" target="j3ikcFKSS2i44kYI19ll-60" edge="1">
          <mxGeometry relative="1" as="geometry">
            <Array as="points">
              <mxPoint x="630" y="520" />
              <mxPoint x="630" y="560" />
              <mxPoint x="790" y="560" />
              <mxPoint x="790" y="505" />
            </Array>
          </mxGeometry>
        </mxCell>
        <mxCell id="j3ikcFKSS2i44kYI19ll-48" value="&lt;div&gt;TENSIONE&lt;/div&gt;" style="whiteSpace=wrap;html=1;sketch=0;fontSize=11;strokeColor=#82b366;fillColor=#d5e8d4;" parent="1" vertex="1">
          <mxGeometry x="490" y="510" width="120" height="20" as="geometry" />
        </mxCell>
        <mxCell id="j3ikcFKSS2i44kYI19ll-63" style="edgeStyle=orthogonalEdgeStyle;rounded=0;orthogonalLoop=1;jettySize=auto;html=1;entryX=0;entryY=0.5;entryDx=0;entryDy=0;fontSize=11;fontColor=#000000;endArrow=block;endFill=1;" parent="1" source="j3ikcFKSS2i44kYI19ll-49" target="j3ikcFKSS2i44kYI19ll-61" edge="1">
          <mxGeometry relative="1" as="geometry">
            <Array as="points">
              <mxPoint x="630" y="600" />
              <mxPoint x="630" y="560" />
              <mxPoint x="790" y="560" />
              <mxPoint x="790" y="615" />
            </Array>
          </mxGeometry>
        </mxCell>
        <mxCell id="j3ikcFKSS2i44kYI19ll-64" value="ci si aspetta che l&#39;amplificatore" style="edgeLabel;html=1;align=center;verticalAlign=middle;resizable=0;points=[];fontSize=11;fontColor=#000000;" parent="j3ikcFKSS2i44kYI19ll-63" vertex="1" connectable="0">
          <mxGeometry x="-0.3791" y="-1" relative="1" as="geometry">
            <mxPoint x="48" y="-3" as="offset" />
          </mxGeometry>
        </mxCell>
        <mxCell id="j3ikcFKSS2i44kYI19ll-49" value="CORRENTE" style="whiteSpace=wrap;html=1;sketch=0;fontSize=11;strokeColor=#82b366;fillColor=#d5e8d4;" parent="1" vertex="1">
          <mxGeometry x="490" y="590" width="120" height="20" as="geometry" />
        </mxCell>
        <mxCell id="j3ikcFKSS2i44kYI19ll-67" style="edgeStyle=orthogonalEdgeStyle;rounded=0;orthogonalLoop=1;jettySize=auto;html=1;entryX=0;entryY=0.5;entryDx=0;entryDy=0;fontSize=11;fontColor=#000000;endArrow=block;endFill=1;" parent="1" source="j3ikcFKSS2i44kYI19ll-50" target="j3ikcFKSS2i44kYI19ll-65" edge="1">
          <mxGeometry relative="1" as="geometry">
            <Array as="points">
              <mxPoint x="630" y="700" />
              <mxPoint x="630" y="740" />
              <mxPoint x="790" y="740" />
            </Array>
          </mxGeometry>
        </mxCell>
        <mxCell id="j3ikcFKSS2i44kYI19ll-50" value="TENSIONE" style="whiteSpace=wrap;html=1;sketch=0;fontSize=11;strokeColor=#b85450;fillColor=#f8cecc;" parent="1" vertex="1">
          <mxGeometry x="490" y="690" width="120" height="20" as="geometry" />
        </mxCell>
        <mxCell id="j3ikcFKSS2i44kYI19ll-68" style="edgeStyle=orthogonalEdgeStyle;rounded=0;orthogonalLoop=1;jettySize=auto;html=1;entryX=0;entryY=0.5;entryDx=0;entryDy=0;fontSize=11;fontColor=#000000;endArrow=block;endFill=1;" parent="1" source="j3ikcFKSS2i44kYI19ll-51" target="j3ikcFKSS2i44kYI19ll-66" edge="1">
          <mxGeometry relative="1" as="geometry">
            <Array as="points">
              <mxPoint x="630" y="780" />
              <mxPoint x="630" y="740" />
              <mxPoint x="790" y="740" />
              <mxPoint x="790" y="795" />
            </Array>
          </mxGeometry>
        </mxCell>
        <mxCell id="j3ikcFKSS2i44kYI19ll-69" value="ci si aspetta che l&#39;amplificatore" style="edgeLabel;html=1;align=center;verticalAlign=middle;resizable=0;points=[];fontSize=11;fontColor=#000000;" parent="j3ikcFKSS2i44kYI19ll-68" vertex="1" connectable="0">
          <mxGeometry x="-0.1609" y="-2" relative="1" as="geometry">
            <mxPoint x="16" y="-4" as="offset" />
          </mxGeometry>
        </mxCell>
        <mxCell id="j3ikcFKSS2i44kYI19ll-51" value="CORRENTE" style="whiteSpace=wrap;html=1;sketch=0;fontSize=11;strokeColor=#b85450;fillColor=#f8cecc;" parent="1" vertex="1">
          <mxGeometry x="490" y="770" width="120" height="20" as="geometry" />
        </mxCell>
        <mxCell id="j3ikcFKSS2i44kYI19ll-60" value="&lt;b&gt;non perturbi&lt;/b&gt; la tensione d&#39;ingresso" style="whiteSpace=wrap;html=1;sketch=0;fontSize=11;strokeColor=#82b366;fillColor=#d5e8d4;" parent="1" vertex="1">
          <mxGeometry x="810" y="490" width="240" height="30" as="geometry" />
        </mxCell>
        <mxCell id="j3ikcFKSS2i44kYI19ll-61" value="&lt;b&gt;non perturbi&lt;/b&gt; la corrente d&#39;ingresso" style="whiteSpace=wrap;html=1;sketch=0;fontSize=11;strokeColor=#82b366;fillColor=#d5e8d4;" parent="1" vertex="1">
          <mxGeometry x="810" y="600" width="240" height="30" as="geometry" />
        </mxCell>
        <mxCell id="j3ikcFKSS2i44kYI19ll-65" value="&lt;b&gt;fissi la tensione&lt;/b&gt; d&#39;uscita al valore previsto, &lt;u&gt;indipendentemente&lt;/u&gt; dal carico collegato in uscita" style="whiteSpace=wrap;html=1;sketch=0;fontSize=11;strokeColor=#b85450;fillColor=#f8cecc;" parent="1" vertex="1">
          <mxGeometry x="810" y="670" width="240" height="30" as="geometry" />
        </mxCell>
        <mxCell id="j3ikcFKSS2i44kYI19ll-66" value="&lt;b&gt;fissi la corrente&lt;/b&gt; al valore previsto, &lt;u&gt;indipendentemente&lt;/u&gt; dal carico collegato in uscita" style="whiteSpace=wrap;html=1;sketch=0;fontSize=11;strokeColor=#b85450;fillColor=#f8cecc;" parent="1" vertex="1">
          <mxGeometry x="810" y="780" width="240" height="30" as="geometry" />
        </mxCell>
        <mxCell id="j3ikcFKSS2i44kYI19ll-76" style="edgeStyle=orthogonalEdgeStyle;rounded=0;orthogonalLoop=1;jettySize=auto;html=1;entryX=0.5;entryY=0;entryDx=0;entryDy=0;fontSize=11;fontColor=#000000;endArrow=block;endFill=1;" parent="1" source="j3ikcFKSS2i44kYI19ll-70" target="j3ikcFKSS2i44kYI19ll-72" edge="1">
          <mxGeometry relative="1" as="geometry">
            <Array as="points">
              <mxPoint x="150" y="900" />
              <mxPoint x="50" y="900" />
            </Array>
          </mxGeometry>
        </mxCell>
        <mxCell id="j3ikcFKSS2i44kYI19ll-77" style="edgeStyle=orthogonalEdgeStyle;rounded=0;orthogonalLoop=1;jettySize=auto;html=1;entryX=0.5;entryY=0;entryDx=0;entryDy=0;fontSize=11;fontColor=#000000;endArrow=block;endFill=1;" parent="1" source="j3ikcFKSS2i44kYI19ll-70" target="j3ikcFKSS2i44kYI19ll-73" edge="1">
          <mxGeometry relative="1" as="geometry">
            <Array as="points">
              <mxPoint x="150" y="900" />
              <mxPoint x="250" y="900" />
              <mxPoint x="250" y="920" />
            </Array>
          </mxGeometry>
        </mxCell>
        <mxCell id="j3ikcFKSS2i44kYI19ll-70" value="&lt;font style=&quot;font-size: 12px;&quot;&gt;RESISTENZE&lt;/font&gt;" style="whiteSpace=wrap;html=1;sketch=0;fontSize=9;fontColor=#FFFFFF;strokeColor=default;fillColor=#0000CC;" parent="1" vertex="1">
          <mxGeometry x="90" y="850" width="120" height="30" as="geometry" />
        </mxCell>
        <mxCell id="j3ikcFKSS2i44kYI19ll-72" value="D&#39;INGRESSO" style="whiteSpace=wrap;html=1;sketch=0;fontSize=11;fontColor=#000000;strokeColor=#2D7600;fillColor=#66FF66;" parent="1" vertex="1">
          <mxGeometry x="10" y="920" width="80" height="20" as="geometry" />
        </mxCell>
        <mxCell id="j3ikcFKSS2i44kYI19ll-73" value="D&#39;USCITA" style="whiteSpace=wrap;html=1;sketch=0;fontSize=11;fontColor=#000000;strokeColor=#2D7600;fillColor=#66FF66;" parent="1" vertex="1">
          <mxGeometry x="212.11" y="920" width="80" height="20" as="geometry" />
        </mxCell>
        <mxCell id="j3ikcFKSS2i44kYI19ll-82" style="rounded=0;orthogonalLoop=1;jettySize=auto;html=1;entryX=0.25;entryY=0;entryDx=0;entryDy=0;fontSize=10;fontColor=#000000;endArrow=block;endFill=1;exitX=0.5;exitY=1.16;exitDx=0;exitDy=0;exitPerimeter=0;" parent="1" source="j3ikcFKSS2i44kYI19ll-79" target="j3ikcFKSS2i44kYI19ll-81" edge="1">
          <mxGeometry relative="1" as="geometry" />
        </mxCell>
        <mxCell id="j3ikcFKSS2i44kYI19ll-79" value="$$R_{in} = \frac{v_{in}}{i_T}$$" style="text;whiteSpace=wrap;html=1;fontSize=11;fontColor=#000000;verticalAlign=middle;align=center;strokeColor=none;spacing=2;labelBorderColor=none;" parent="1" vertex="1">
          <mxGeometry x="10" y="960" width="80" height="20" as="geometry" />
        </mxCell>
        <mxCell id="j3ikcFKSS2i44kYI19ll-83" style="rounded=0;orthogonalLoop=1;jettySize=auto;html=1;fontSize=10;fontColor=#000000;endArrow=block;endFill=1;exitX=0.5;exitY=1;exitDx=0;exitDy=0;entryX=0.75;entryY=0;entryDx=0;entryDy=0;" parent="1" source="j3ikcFKSS2i44kYI19ll-80" target="j3ikcFKSS2i44kYI19ll-81" edge="1">
          <mxGeometry relative="1" as="geometry">
            <mxPoint x="150" y="1040" as="targetPoint" />
          </mxGeometry>
        </mxCell>
        <mxCell id="j3ikcFKSS2i44kYI19ll-80" value="$$R_{out} = \frac{v_{out}}{i_T}$$" style="text;whiteSpace=wrap;html=1;fontSize=11;fontColor=#000000;verticalAlign=middle;align=center;strokeColor=none;spacing=2;labelBorderColor=none;" parent="1" vertex="1">
          <mxGeometry x="212.11" y="960" width="80" height="20" as="geometry" />
        </mxCell>
        <mxCell id="j3ikcFKSS2i44kYI19ll-81" value="&lt;font style=&quot;font-size: 10px;&quot;&gt;\(i_T\) → corrente di test applicata all&#39;ingresso/uscita&lt;/font&gt;" style="whiteSpace=wrap;html=1;sketch=0;fontSize=11;fontColor=#333333;strokeColor=#666666;fillColor=#f5f5f5;" parent="1" vertex="1">
          <mxGeometry x="70" y="1040" width="160" height="30" as="geometry" />
        </mxCell>
        <mxCell id="mamlLjxaLS5aXIm2oJee-8" style="edgeStyle=orthogonalEdgeStyle;rounded=0;orthogonalLoop=1;jettySize=auto;html=1;entryX=0.5;entryY=0;entryDx=0;entryDy=0;fontSize=12;" parent="1" source="mamlLjxaLS5aXIm2oJee-2" target="mamlLjxaLS5aXIm2oJee-5" edge="1">
          <mxGeometry relative="1" as="geometry" />
        </mxCell>
        <mxCell id="mamlLjxaLS5aXIm2oJee-9" style="edgeStyle=orthogonalEdgeStyle;rounded=0;orthogonalLoop=1;jettySize=auto;html=1;entryX=0.5;entryY=0;entryDx=0;entryDy=0;fontSize=12;" parent="1" source="mamlLjxaLS5aXIm2oJee-2" target="mamlLjxaLS5aXIm2oJee-4" edge="1">
          <mxGeometry relative="1" as="geometry">
            <Array as="points">
              <mxPoint x="740" y="950" />
              <mxPoint x="410" y="950" />
            </Array>
          </mxGeometry>
        </mxCell>
        <mxCell id="mamlLjxaLS5aXIm2oJee-10" style="edgeStyle=orthogonalEdgeStyle;rounded=0;orthogonalLoop=1;jettySize=auto;html=1;entryX=0.5;entryY=0;entryDx=0;entryDy=0;fontSize=12;" parent="1" source="mamlLjxaLS5aXIm2oJee-2" target="mamlLjxaLS5aXIm2oJee-6" edge="1">
          <mxGeometry relative="1" as="geometry" />
        </mxCell>
        <mxCell id="mamlLjxaLS5aXIm2oJee-11" style="edgeStyle=orthogonalEdgeStyle;rounded=0;orthogonalLoop=1;jettySize=auto;html=1;entryX=0.5;entryY=0;entryDx=0;entryDy=0;fontSize=12;" parent="1" source="mamlLjxaLS5aXIm2oJee-2" target="mamlLjxaLS5aXIm2oJee-7" edge="1">
          <mxGeometry relative="1" as="geometry">
            <Array as="points">
              <mxPoint x="740" y="950" />
              <mxPoint x="1070" y="950" />
            </Array>
          </mxGeometry>
        </mxCell>
        <mxCell id="mamlLjxaLS5aXIm2oJee-23" style="edgeStyle=none;rounded=0;orthogonalLoop=1;jettySize=auto;html=1;entryX=0;entryY=0.5;entryDx=0;entryDy=0;fontSize=10;exitX=1;exitY=0.5;exitDx=0;exitDy=0;" parent="1" source="mamlLjxaLS5aXIm2oJee-2" target="mamlLjxaLS5aXIm2oJee-22" edge="1">
          <mxGeometry relative="1" as="geometry" />
        </mxCell>
        <mxCell id="mamlLjxaLS5aXIm2oJee-2" value="&lt;font style=&quot;font-size: 12px;&quot;&gt;EFFETTO DI CARICO&lt;/font&gt;" style="whiteSpace=wrap;html=1;fontSize=9;fillColor=#0000CC;fontColor=#FFFFFF;sketch=0;" parent="1" vertex="1">
          <mxGeometry x="670" y="890" width="140" height="40" as="geometry" />
        </mxCell>
        <mxCell id="mamlLjxaLS5aXIm2oJee-4" value="&lt;div&gt;AMPLIFICATORE DI&lt;/div&gt;&lt;div&gt;TENSIONE&lt;/div&gt;" style="whiteSpace=wrap;html=1;fontSize=11;fillColor=#66FF66;strokeColor=#2D7600;fontColor=#000000;sketch=0;" parent="1" vertex="1">
          <mxGeometry x="350" y="970" width="120" height="40" as="geometry" />
        </mxCell>
        <mxCell id="mamlLjxaLS5aXIm2oJee-5" value="&lt;div&gt;AMPLIFICATORE DI&lt;/div&gt;&lt;div&gt;CORRENTE&lt;br&gt;&lt;/div&gt;" style="whiteSpace=wrap;html=1;fontSize=11;fillColor=#66FF66;strokeColor=#2D7600;fontColor=#000000;sketch=0;" parent="1" vertex="1">
          <mxGeometry x="570" y="970" width="120" height="40" as="geometry" />
        </mxCell>
        <mxCell id="mamlLjxaLS5aXIm2oJee-6" value="&lt;div&gt;AMPLIFICATORE DI&lt;/div&gt;&lt;div&gt;TRANSCONDUTTANZA&lt;br&gt;&lt;/div&gt;" style="whiteSpace=wrap;html=1;fontSize=11;fillColor=#66FF66;strokeColor=#2D7600;fontColor=#000000;sketch=0;" parent="1" vertex="1">
          <mxGeometry x="790" y="970" width="120" height="40" as="geometry" />
        </mxCell>
        <mxCell id="mamlLjxaLS5aXIm2oJee-7" value="&lt;div&gt;AMPLIFICATORE DI&lt;/div&gt;&lt;div&gt;TRANSRESISTENZA&lt;br&gt;&lt;/div&gt;" style="whiteSpace=wrap;html=1;fontSize=11;fillColor=#66FF66;strokeColor=#2D7600;fontColor=#000000;sketch=0;" parent="1" vertex="1">
          <mxGeometry x="1010" y="970" width="120" height="40" as="geometry" />
        </mxCell>
        <mxCell id="mamlLjxaLS5aXIm2oJee-13" value="&lt;div style=&quot;font-size: 10px;&quot; align=&quot;center&quot;&gt;$$v_{out} = \color{blue}{ \frac{R_{in}}{R_{in}+R_s} } \color{red}{ \frac{R_L}{R_L+R_{out}} } A_v v_s$$&lt;/div&gt;" style="text;whiteSpace=wrap;html=1;fontSize=10;align=center;verticalAlign=middle;" parent="1" vertex="1">
          <mxGeometry x="320" y="1030" width="180" height="30" as="geometry" />
        </mxCell>
        <mxCell id="mamlLjxaLS5aXIm2oJee-14" value="&lt;div style=&quot;font-size: 10px;&quot; align=&quot;center&quot;&gt;$$i_{out} = \color{blue}{ \frac{R_s}{R_{in}+R_s} } \color{red}{ \frac{R_{out}}{R_L+R_{out}} } A_i i_s$$&lt;/div&gt;" style="text;whiteSpace=wrap;html=1;fontSize=10;align=center;verticalAlign=middle;" parent="1" vertex="1">
          <mxGeometry x="540" y="1030" width="180" height="30" as="geometry" />
        </mxCell>
        <mxCell id="mamlLjxaLS5aXIm2oJee-16" value="&lt;div style=&quot;font-size: 10px;&quot; align=&quot;center&quot;&gt;$$i_{out} = \color{blue}{ \frac{R_{in}}{R_{in}+R_s} } \color{red}{ \frac{R_{out}}{R_L+R_{out}} } g_m v_s$$&lt;/div&gt;" style="text;whiteSpace=wrap;html=1;fontSize=10;align=center;verticalAlign=middle;" parent="1" vertex="1">
          <mxGeometry x="760" y="1030" width="180" height="30" as="geometry" />
        </mxCell>
        <mxCell id="mamlLjxaLS5aXIm2oJee-17" value="&lt;div style=&quot;font-size: 10px;&quot; align=&quot;center&quot;&gt;$$v_{out} = \color{blue}{ \frac{R_s}{R_{in}+R_s} } \color{red}{ \frac{R_L}{R_L+R_{out}} } R_m i_s$$&lt;/div&gt;" style="text;whiteSpace=wrap;html=1;fontSize=10;align=center;verticalAlign=middle;" parent="1" vertex="1">
          <mxGeometry x="980" y="1030" width="180" height="30" as="geometry" />
        </mxCell>
        <mxCell id="mamlLjxaLS5aXIm2oJee-22" value="&lt;div align=&quot;left&quot;&gt;NB (nelle formule giù):&lt;/div&gt;&lt;div align=&quot;left&quot;&gt;blu → effetto di carico sull&#39;ingresso&lt;/div&gt;&lt;div align=&quot;left&quot;&gt;rosso → effetto di carico sull&#39;uscita&lt;br&gt;&lt;/div&gt;" style="whiteSpace=wrap;html=1;fontSize=10;align=left;fillColor=#fff2cc;strokeColor=#d6b656;verticalAlign=middle;" parent="1" vertex="1">
          <mxGeometry x="860" y="850" width="190" height="40" as="geometry" />
        </mxCell>
        <mxCell id="mamlLjxaLS5aXIm2oJee-24" value="&lt;font style=&quot;font-size: 12px;&quot;&gt;AMPLIFICAZIONE DI POTENZA E CONSIDERAZIONI ENERGETICHE&lt;/font&gt;" style="whiteSpace=wrap;html=1;fontSize=9;fillColor=#0000CC;fontColor=#FFFFFF;sketch=0;" parent="1" vertex="1">
          <mxGeometry x="210" y="1110" width="200" height="50" as="geometry" />
        </mxCell>
        <mxCell id="mamlLjxaLS5aXIm2oJee-34" style="edgeStyle=orthogonalEdgeStyle;rounded=0;orthogonalLoop=1;jettySize=auto;html=1;entryX=0.5;entryY=0;entryDx=0;entryDy=0;fontSize=12;" parent="1" source="mamlLjxaLS5aXIm2oJee-25" target="mamlLjxaLS5aXIm2oJee-26" edge="1">
          <mxGeometry relative="1" as="geometry">
            <Array as="points">
              <mxPoint x="310" y="1310" />
              <mxPoint x="100" y="1310" />
            </Array>
          </mxGeometry>
        </mxCell>
        <mxCell id="mamlLjxaLS5aXIm2oJee-35" style="edgeStyle=orthogonalEdgeStyle;rounded=0;orthogonalLoop=1;jettySize=auto;html=1;entryX=0.5;entryY=0;entryDx=0;entryDy=0;fontSize=12;" parent="1" source="mamlLjxaLS5aXIm2oJee-25" target="mamlLjxaLS5aXIm2oJee-28" edge="1">
          <mxGeometry relative="1" as="geometry" />
        </mxCell>
        <mxCell id="mamlLjxaLS5aXIm2oJee-36" style="edgeStyle=orthogonalEdgeStyle;rounded=0;orthogonalLoop=1;jettySize=auto;html=1;entryX=0.5;entryY=0;entryDx=0;entryDy=0;fontSize=12;" parent="1" source="mamlLjxaLS5aXIm2oJee-25" target="mamlLjxaLS5aXIm2oJee-27" edge="1">
          <mxGeometry relative="1" as="geometry">
            <Array as="points">
              <mxPoint x="310" y="1310" />
              <mxPoint x="520" y="1310" />
            </Array>
          </mxGeometry>
        </mxCell>
        <mxCell id="mamlLjxaLS5aXIm2oJee-25" value="" style="shape=image;verticalLabelPosition=bottom;labelBackgroundColor=default;verticalAlign=top;aspect=fixed;imageAspect=0;image=https://raw.githubusercontent.com/BCPTe/SETM/main/images/06/amplificatore_circuito_alimentazione.png;imageBorder=default;" parent="1" vertex="1">
          <mxGeometry x="170" y="1162" width="280" height="126.54" as="geometry" />
        </mxCell>
        <mxCell id="mamlLjxaLS5aXIm2oJee-26" value="POTENZA ALIMENTAZIONE" style="whiteSpace=wrap;html=1;fontSize=11;fillColor=#66FF66;strokeColor=#2D7600;fontColor=#000000;sketch=0;" parent="1" vertex="1">
          <mxGeometry x="20" y="1330" width="160" height="30" as="geometry" />
        </mxCell>
        <mxCell id="mamlLjxaLS5aXIm2oJee-27" value="POTENZA ALL&#39;USCITA" style="whiteSpace=wrap;html=1;fontSize=11;fillColor=#66FF66;strokeColor=#2D7600;fontColor=#000000;sketch=0;" parent="1" vertex="1">
          <mxGeometry x="440" y="1330" width="160" height="30" as="geometry" />
        </mxCell>
        <mxCell id="mamlLjxaLS5aXIm2oJee-28" value="POTENZA ALL&#39;INGRESSO" style="whiteSpace=wrap;html=1;fontSize=11;fillColor=#66FF66;strokeColor=#2D7600;fontColor=#000000;sketch=0;" parent="1" vertex="1">
          <mxGeometry x="230" y="1330" width="160" height="30" as="geometry" />
        </mxCell>
        <mxCell id="mamlLjxaLS5aXIm2oJee-38" style="rounded=0;orthogonalLoop=1;jettySize=auto;html=1;entryX=0.25;entryY=0;entryDx=0;entryDy=0;fontSize=12;" parent="1" source="mamlLjxaLS5aXIm2oJee-30" target="mamlLjxaLS5aXIm2oJee-37" edge="1">
          <mxGeometry relative="1" as="geometry" />
        </mxCell>
        <mxCell id="mamlLjxaLS5aXIm2oJee-30" value="$$P_{al} = V_{AL}i_{AL}$$" style="text;whiteSpace=wrap;html=1;fontSize=12;verticalAlign=middle;align=center;" parent="1" vertex="1">
          <mxGeometry x="20" y="1370" width="160" height="30" as="geometry" />
        </mxCell>
        <mxCell id="mamlLjxaLS5aXIm2oJee-39" style="edgeStyle=none;rounded=0;orthogonalLoop=1;jettySize=auto;html=1;entryX=0.5;entryY=0;entryDx=0;entryDy=0;fontSize=12;" parent="1" source="mamlLjxaLS5aXIm2oJee-31" target="mamlLjxaLS5aXIm2oJee-37" edge="1">
          <mxGeometry relative="1" as="geometry" />
        </mxCell>
        <mxCell id="mamlLjxaLS5aXIm2oJee-31" value="$$P_{in} = v_{in}i_{in} = 0$$" style="text;whiteSpace=wrap;html=1;fontSize=12;verticalAlign=middle;align=center;" parent="1" vertex="1">
          <mxGeometry x="230" y="1370" width="160" height="30" as="geometry" />
        </mxCell>
        <mxCell id="mamlLjxaLS5aXIm2oJee-40" style="edgeStyle=none;rounded=0;orthogonalLoop=1;jettySize=auto;html=1;entryX=0.75;entryY=0;entryDx=0;entryDy=0;fontSize=12;" parent="1" source="mamlLjxaLS5aXIm2oJee-32" target="mamlLjxaLS5aXIm2oJee-37" edge="1">
          <mxGeometry relative="1" as="geometry" />
        </mxCell>
        <mxCell id="mamlLjxaLS5aXIm2oJee-32" value="$$P_{out} = \frac{A_v^2v_{in}^2}{R_L}$$" style="text;whiteSpace=wrap;html=1;fontSize=12;verticalAlign=middle;align=center;" parent="1" vertex="1">
          <mxGeometry x="440" y="1370" width="160" height="30" as="geometry" />
        </mxCell>
        <mxCell id="mamlLjxaLS5aXIm2oJee-37" value="&lt;font style=&quot;font-size: 12px;&quot;&gt;EFFICIENZA ENERGETICA&lt;/font&gt;" style="whiteSpace=wrap;html=1;fontSize=9;fillColor=#0000CC;fontColor=#FFFFFF;sketch=0;" parent="1" vertex="1">
          <mxGeometry x="230" y="1460" width="160" height="40" as="geometry" />
        </mxCell>
        <mxCell id="mamlLjxaLS5aXIm2oJee-41" value="$$\eta = \frac{P_{out}}{P_{al}+P_{in}} \simeq \frac{P_{out}}{P_{al}}$$" style="text;whiteSpace=wrap;html=1;fontSize=12;verticalAlign=middle;align=center;" parent="1" vertex="1">
          <mxGeometry x="230" y="1510" width="160" height="30" as="geometry" />
        </mxCell>
        <mxCell id="mamlLjxaLS5aXIm2oJee-42" value="&lt;div style=&quot;font-size: 10px;&quot; align=&quot;left&quot;&gt;&lt;font style=&quot;font-size: 10px;&quot;&gt;NB:&lt;/font&gt;&lt;/div&gt;&lt;div style=&quot;font-size: 10px;&quot; align=&quot;left&quot;&gt;&lt;font style=&quot;font-size: 10px;&quot;&gt;- spesso molto bassa (\(\eta&amp;lt;20\%\)) negli amplificatori di segnale, ma se \(P_{out}\) è piccola, non è grave&lt;/font&gt;&lt;/div&gt;&lt;div style=&quot;font-size: 10px;&quot; align=&quot;left&quot;&gt;&lt;font style=&quot;font-size: 10px;&quot;&gt;- negli amplificatori di potenza (\(P_{out}\)) è invece fondamentale avere \(\eta\) elevata&lt;br&gt;&lt;/font&gt;&lt;/div&gt;" style="whiteSpace=wrap;html=1;fontSize=11;align=left;fillColor=#f5f5f5;fontColor=#333333;strokeColor=#666666;" parent="1" vertex="1">
          <mxGeometry x="190" y="1560" width="240" height="70" as="geometry" />
        </mxCell>
        <mxCell id="mamlLjxaLS5aXIm2oJee-47" style="edgeStyle=orthogonalEdgeStyle;rounded=0;orthogonalLoop=1;jettySize=auto;html=1;entryX=0.5;entryY=0;entryDx=0;entryDy=0;fontSize=10;" parent="1" source="mamlLjxaLS5aXIm2oJee-44" target="mamlLjxaLS5aXIm2oJee-46" edge="1">
          <mxGeometry relative="1" as="geometry" />
        </mxCell>
        <mxCell id="mamlLjxaLS5aXIm2oJee-57" style="edgeStyle=orthogonalEdgeStyle;rounded=0;orthogonalLoop=1;jettySize=auto;html=1;entryX=0.5;entryY=0;entryDx=0;entryDy=0;fontSize=10;" parent="1" source="mamlLjxaLS5aXIm2oJee-44" target="mamlLjxaLS5aXIm2oJee-56" edge="1">
          <mxGeometry relative="1" as="geometry">
            <Array as="points">
              <mxPoint x="960" y="1140" />
              <mxPoint x="960" y="1300" />
              <mxPoint x="940" y="1300" />
            </Array>
          </mxGeometry>
        </mxCell>
        <mxCell id="mamlLjxaLS5aXIm2oJee-44" value="&lt;font style=&quot;font-size: 12px;&quot;&gt;AMPLIFICAZIONE DI POTENZA&lt;/font&gt;" style="whiteSpace=wrap;html=1;fontSize=9;fillColor=#0000CC;fontColor=#FFFFFF;sketch=0;" parent="1" vertex="1">
          <mxGeometry x="710" y="1120" width="120" height="40" as="geometry" />
        </mxCell>
        <mxCell id="mamlLjxaLS5aXIm2oJee-53" style="edgeStyle=orthogonalEdgeStyle;rounded=0;orthogonalLoop=1;jettySize=auto;html=1;entryX=0.5;entryY=0;entryDx=0;entryDy=0;fontSize=10;" parent="1" source="mamlLjxaLS5aXIm2oJee-46" target="mamlLjxaLS5aXIm2oJee-49" edge="1">
          <mxGeometry relative="1" as="geometry" />
        </mxCell>
        <mxCell id="mamlLjxaLS5aXIm2oJee-46" value="&lt;div style=&quot;font-size: 10px;&quot; align=&quot;center&quot;&gt;$$P_{in} = \frac{v_{in}^2}{R_{in}} \qquad , \qquad P_{out} = v_{out}i_{out} = \frac{R_L A_v^2 v_{in}^2}{(R_{out}+R_L)^2}$$&lt;/div&gt;" style="text;whiteSpace=wrap;html=1;fontSize=10;align=center;verticalAlign=middle;strokeColor=#969696;" parent="1" vertex="1">
          <mxGeometry x="620" y="1200" width="300" height="40" as="geometry" />
        </mxCell>
        <mxCell id="mamlLjxaLS5aXIm2oJee-49" value="$$A_P = \frac{P_{out}}{P_{in}} = \frac{R_LR_{in}}{(R_{out}+R_L)^2}A_v^2$$" style="whiteSpace=wrap;html=1;fontSize=10;strokeColor=#6c8ebf;fillColor=#dae8fc;" parent="1" vertex="1">
          <mxGeometry x="680" y="1280" width="180" height="40" as="geometry" />
        </mxCell>
        <mxCell id="mamlLjxaLS5aXIm2oJee-60" style="edgeStyle=orthogonalEdgeStyle;rounded=0;orthogonalLoop=1;jettySize=auto;html=1;entryX=0.5;entryY=0;entryDx=0;entryDy=0;fontSize=10;" parent="1" source="mamlLjxaLS5aXIm2oJee-56" target="mamlLjxaLS5aXIm2oJee-58" edge="1">
          <mxGeometry relative="1" as="geometry">
            <Array as="points">
              <mxPoint x="940" y="1420" />
              <mxPoint x="940" y="1420" />
            </Array>
          </mxGeometry>
        </mxCell>
        <mxCell id="mamlLjxaLS5aXIm2oJee-61" value="consideriamo" style="edgeLabel;html=1;align=center;verticalAlign=middle;resizable=0;points=[];fontSize=10;" parent="mamlLjxaLS5aXIm2oJee-60" vertex="1" connectable="0">
          <mxGeometry x="-0.2952" relative="1" as="geometry">
            <mxPoint y="3" as="offset" />
          </mxGeometry>
        </mxCell>
        <mxCell id="mamlLjxaLS5aXIm2oJee-56" value="NEGLI AMPLIFICATORI A RADIOFREQUENZA (RF)" style="whiteSpace=wrap;html=1;fontSize=11;strokeColor=#2D7600;fillColor=#66FF66;fontColor=#000000;sketch=0;" parent="1" vertex="1">
          <mxGeometry x="860" y="1350" width="160" height="40" as="geometry" />
        </mxCell>
        <mxCell id="mamlLjxaLS5aXIm2oJee-65" style="edgeStyle=orthogonalEdgeStyle;rounded=0;orthogonalLoop=1;jettySize=auto;html=1;entryX=0.5;entryY=0;entryDx=0;entryDy=0;fontSize=10;endArrow=none;endFill=0;" parent="1" source="mamlLjxaLS5aXIm2oJee-58" target="mamlLjxaLS5aXIm2oJee-62" edge="1">
          <mxGeometry relative="1" as="geometry">
            <Array as="points">
              <mxPoint x="940" y="1500" />
              <mxPoint x="850" y="1500" />
            </Array>
          </mxGeometry>
        </mxCell>
        <mxCell id="mamlLjxaLS5aXIm2oJee-66" style="edgeStyle=orthogonalEdgeStyle;rounded=0;orthogonalLoop=1;jettySize=auto;html=1;entryX=0.5;entryY=0;entryDx=0;entryDy=0;fontSize=10;endArrow=none;endFill=0;" parent="1" source="mamlLjxaLS5aXIm2oJee-58" target="mamlLjxaLS5aXIm2oJee-63" edge="1">
          <mxGeometry relative="1" as="geometry" />
        </mxCell>
        <mxCell id="mamlLjxaLS5aXIm2oJee-58" value="&lt;div&gt;$$R_s = R_L = Z_0 = 50 \Omega \\ R_{in} = R_{out} = Z_0 = 50\Omega$$&lt;/div&gt;" style="whiteSpace=wrap;html=1;fontSize=10;strokeColor=#969696;" parent="1" vertex="1">
          <mxGeometry x="860" y="1430" width="160" height="50" as="geometry" />
        </mxCell>
        <mxCell id="mamlLjxaLS5aXIm2oJee-62" value="$$P_{in} = \frac{v_{in}^2}{Z_0}$$" style="whiteSpace=wrap;html=1;fontSize=10;strokeColor=#969696;" parent="1" vertex="1">
          <mxGeometry x="800" y="1510" width="100" height="40" as="geometry" />
        </mxCell>
        <mxCell id="mamlLjxaLS5aXIm2oJee-63" value="$$P_{out} = \frac{A_v^2 v_{in}^2}{4Z_0}$$" style="whiteSpace=wrap;html=1;fontSize=10;strokeColor=#969696;" parent="1" vertex="1">
          <mxGeometry x="980" y="1510" width="100" height="40" as="geometry" />
        </mxCell>
        <mxCell id="mamlLjxaLS5aXIm2oJee-64" value="" style="shape=image;verticalLabelPosition=bottom;labelBackgroundColor=default;verticalAlign=top;aspect=fixed;imageAspect=0;image=https://raw.githubusercontent.com/BCPTe/SETM/main/images/06/amplificazione_pot_rf.png;imageBorder=#969696;" parent="1" vertex="1">
          <mxGeometry x="961.92" y="1188" width="198.08" height="75.42" as="geometry" />
        </mxCell>
        <mxCell id="mamlLjxaLS5aXIm2oJee-67" value="$$A_P = \frac{P_{out}}{P_{in}} = \frac{A_v^2}{4}$$" style="whiteSpace=wrap;html=1;fontSize=10;strokeColor=#6c8ebf;fillColor=#dae8fc;" parent="1" vertex="1">
          <mxGeometry x="870" y="1570" width="120" height="40" as="geometry" />
        </mxCell>
        <mxCell id="mamlLjxaLS5aXIm2oJee-75" style="rounded=0;orthogonalLoop=1;jettySize=auto;html=1;entryX=0;entryY=0.5;entryDx=0;entryDy=0;fontSize=11;fontColor=#000000;endArrow=block;endFill=1;exitX=1;exitY=0.5;exitDx=0;exitDy=0;" parent="1" source="mamlLjxaLS5aXIm2oJee-68" target="mamlLjxaLS5aXIm2oJee-74" edge="1">
          <mxGeometry relative="1" as="geometry" />
        </mxCell>
        <mxCell id="mamlLjxaLS5aXIm2oJee-82" style="edgeStyle=orthogonalEdgeStyle;rounded=0;orthogonalLoop=1;jettySize=auto;html=1;entryX=0.5;entryY=0;entryDx=0;entryDy=0;fontSize=13;fontColor=#000000;endArrow=block;endFill=1;" parent="1" source="mamlLjxaLS5aXIm2oJee-68" target="mamlLjxaLS5aXIm2oJee-72" edge="1">
          <mxGeometry relative="1" as="geometry">
            <Array as="points">
              <mxPoint x="1760" y="90" />
              <mxPoint x="1500" y="90" />
            </Array>
          </mxGeometry>
        </mxCell>
        <mxCell id="mamlLjxaLS5aXIm2oJee-83" style="edgeStyle=orthogonalEdgeStyle;rounded=0;orthogonalLoop=1;jettySize=auto;html=1;entryX=0.5;entryY=0;entryDx=0;entryDy=0;fontSize=13;fontColor=#000000;endArrow=block;endFill=1;" parent="1" source="mamlLjxaLS5aXIm2oJee-68" target="mamlLjxaLS5aXIm2oJee-73" edge="1">
          <mxGeometry relative="1" as="geometry">
            <Array as="points">
              <mxPoint x="1760" y="90" />
              <mxPoint x="2100" y="90" />
            </Array>
          </mxGeometry>
        </mxCell>
        <mxCell id="mamlLjxaLS5aXIm2oJee-68" value="&lt;div style=&quot;font-size: 13px;&quot;&gt;&lt;font style=&quot;font-size: 13px;&quot; color=&quot;#FFFFFF&quot;&gt;STADI AMPLIFICATORI&lt;/font&gt;&lt;/div&gt;&lt;div style=&quot;font-size: 13px;&quot;&gt;&lt;font style=&quot;font-size: 13px;&quot; color=&quot;#FFFFFF&quot;&gt;MOS&lt;/font&gt;&lt;/div&gt;" style="whiteSpace=wrap;html=1;fontSize=9;strokeColor=default;fillColor=#0000CC;" parent="1" vertex="1">
          <mxGeometry x="1680" y="30" width="160" height="40" as="geometry" />
        </mxCell>
        <mxCell id="mamlLjxaLS5aXIm2oJee-79" style="edgeStyle=orthogonalEdgeStyle;rounded=0;orthogonalLoop=1;jettySize=auto;html=1;fontSize=13;fontColor=#000000;endArrow=none;endFill=0;" parent="1" source="mamlLjxaLS5aXIm2oJee-72" target="mamlLjxaLS5aXIm2oJee-76" edge="1">
          <mxGeometry relative="1" as="geometry">
            <Array as="points">
              <mxPoint x="1500" y="180" />
              <mxPoint x="1300" y="180" />
            </Array>
          </mxGeometry>
        </mxCell>
        <mxCell id="mamlLjxaLS5aXIm2oJee-80" style="edgeStyle=orthogonalEdgeStyle;rounded=0;orthogonalLoop=1;jettySize=auto;html=1;entryX=0.5;entryY=0;entryDx=0;entryDy=0;fontSize=13;fontColor=#000000;endArrow=none;endFill=0;" parent="1" source="mamlLjxaLS5aXIm2oJee-72" target="mamlLjxaLS5aXIm2oJee-77" edge="1">
          <mxGeometry relative="1" as="geometry" />
        </mxCell>
        <mxCell id="mamlLjxaLS5aXIm2oJee-81" style="edgeStyle=orthogonalEdgeStyle;rounded=0;orthogonalLoop=1;jettySize=auto;html=1;entryX=0.5;entryY=0;entryDx=0;entryDy=0;fontSize=13;fontColor=#000000;endArrow=none;endFill=0;" parent="1" source="mamlLjxaLS5aXIm2oJee-72" target="mamlLjxaLS5aXIm2oJee-78" edge="1">
          <mxGeometry relative="1" as="geometry">
            <Array as="points">
              <mxPoint x="1620" y="180" />
              <mxPoint x="1940" y="180" />
            </Array>
          </mxGeometry>
        </mxCell>
        <mxCell id="mamlLjxaLS5aXIm2oJee-72" value="&lt;font style=&quot;font-size: 12px;&quot;&gt;AMPLIFICATORI A SINGOLO TRANSISTORE&lt;/font&gt;" style="whiteSpace=wrap;html=1;fontSize=11;fontColor=#000000;strokeColor=#2D7600;fillColor=#66FF66;" parent="1" vertex="1">
          <mxGeometry x="1440" y="110" width="120" height="50" as="geometry" />
        </mxCell>
        <mxCell id="LDA_1cCVIODJHaGO12al-2" style="rounded=0;orthogonalLoop=1;jettySize=auto;html=1;entryX=0.5;entryY=1;entryDx=0;entryDy=0;fontSize=9;exitX=1;exitY=0.5;exitDx=0;exitDy=0;" edge="1" parent="1" source="mamlLjxaLS5aXIm2oJee-73" target="LDA_1cCVIODJHaGO12al-1">
          <mxGeometry relative="1" as="geometry" />
        </mxCell>
        <mxCell id="mamlLjxaLS5aXIm2oJee-73" value="AMPLIFICATORI A PIÙ STADI" style="whiteSpace=wrap;html=1;fontSize=11;fontColor=#000000;strokeColor=#2D7600;fillColor=#66FF66;" parent="1" vertex="1">
          <mxGeometry x="2040" y="110" width="120" height="50" as="geometry" />
        </mxCell>
        <mxCell id="mamlLjxaLS5aXIm2oJee-74" value="&lt;font style=&quot;font-size: 11px;&quot;&gt;è possibile ottenere amplificatori a partire da transistori MOS o BJT&lt;/font&gt;" style="whiteSpace=wrap;html=1;fontSize=12;fontColor=#333333;strokeColor=#666666;fillColor=#f5f5f5;" parent="1" vertex="1">
          <mxGeometry x="1880" y="20" width="180" height="30" as="geometry" />
        </mxCell>
        <mxCell id="mamlLjxaLS5aXIm2oJee-89" style="edgeStyle=orthogonalEdgeStyle;rounded=0;orthogonalLoop=1;jettySize=auto;html=1;entryX=0;entryY=0.5;entryDx=0;entryDy=0;fontSize=9;fontColor=#000000;endArrow=block;endFill=1;" parent="1" source="mamlLjxaLS5aXIm2oJee-76" target="mamlLjxaLS5aXIm2oJee-86" edge="1">
          <mxGeometry relative="1" as="geometry">
            <Array as="points">
              <mxPoint x="1250" y="290" />
            </Array>
          </mxGeometry>
        </mxCell>
        <mxCell id="mamlLjxaLS5aXIm2oJee-102" value="ingresso" style="edgeLabel;html=1;align=center;verticalAlign=middle;resizable=0;points=[];fontSize=9;fontColor=#000000;" parent="mamlLjxaLS5aXIm2oJee-89" vertex="1" connectable="0">
          <mxGeometry x="0.2575" relative="1" as="geometry">
            <mxPoint x="6" y="-1" as="offset" />
          </mxGeometry>
        </mxCell>
        <mxCell id="mamlLjxaLS5aXIm2oJee-90" style="edgeStyle=orthogonalEdgeStyle;rounded=0;orthogonalLoop=1;jettySize=auto;html=1;entryX=0;entryY=0.5;entryDx=0;entryDy=0;fontSize=9;fontColor=#000000;endArrow=block;endFill=1;" parent="1" source="mamlLjxaLS5aXIm2oJee-76" target="mamlLjxaLS5aXIm2oJee-87" edge="1">
          <mxGeometry relative="1" as="geometry">
            <Array as="points">
              <mxPoint x="1250" y="370" />
            </Array>
          </mxGeometry>
        </mxCell>
        <mxCell id="mamlLjxaLS5aXIm2oJee-103" value="uscita" style="edgeLabel;html=1;align=center;verticalAlign=middle;resizable=0;points=[];fontSize=9;fontColor=#000000;" parent="mamlLjxaLS5aXIm2oJee-90" vertex="1" connectable="0">
          <mxGeometry x="0.5531" y="-1" relative="1" as="geometry">
            <mxPoint x="7" y="-2" as="offset" />
          </mxGeometry>
        </mxCell>
        <mxCell id="mamlLjxaLS5aXIm2oJee-76" value="&lt;div&gt;SOURCE COMUNE&lt;/div&gt;&lt;div&gt;&lt;font style=&quot;font-size: 9px;&quot;&gt;COMMON SOURCE (CS)&lt;/font&gt;&lt;br&gt;&lt;/div&gt;" style="whiteSpace=wrap;html=1;fontSize=11;strokeColor=#d6b656;fillColor=#fff2cc;" parent="1" vertex="1">
          <mxGeometry x="1240" y="200" width="120" height="40" as="geometry" />
        </mxCell>
        <mxCell id="mamlLjxaLS5aXIm2oJee-95" style="edgeStyle=orthogonalEdgeStyle;rounded=0;orthogonalLoop=1;jettySize=auto;html=1;entryX=0;entryY=0.5;entryDx=0;entryDy=0;fontSize=9;fontColor=#000000;endArrow=block;endFill=1;" parent="1" source="mamlLjxaLS5aXIm2oJee-77" target="mamlLjxaLS5aXIm2oJee-92" edge="1">
          <mxGeometry relative="1" as="geometry">
            <Array as="points">
              <mxPoint x="1450" y="290" />
            </Array>
          </mxGeometry>
        </mxCell>
        <mxCell id="mamlLjxaLS5aXIm2oJee-104" value="ingresso" style="edgeLabel;html=1;align=center;verticalAlign=middle;resizable=0;points=[];fontSize=9;fontColor=#000000;" parent="mamlLjxaLS5aXIm2oJee-95" vertex="1" connectable="0">
          <mxGeometry x="0.2575" relative="1" as="geometry">
            <mxPoint x="7" y="-1" as="offset" />
          </mxGeometry>
        </mxCell>
        <mxCell id="mamlLjxaLS5aXIm2oJee-96" style="edgeStyle=orthogonalEdgeStyle;rounded=0;orthogonalLoop=1;jettySize=auto;html=1;entryX=0;entryY=0.5;entryDx=0;entryDy=0;fontSize=9;fontColor=#000000;endArrow=block;endFill=1;" parent="1" source="mamlLjxaLS5aXIm2oJee-77" target="mamlLjxaLS5aXIm2oJee-93" edge="1">
          <mxGeometry relative="1" as="geometry">
            <Array as="points">
              <mxPoint x="1450" y="370" />
            </Array>
          </mxGeometry>
        </mxCell>
        <mxCell id="mamlLjxaLS5aXIm2oJee-105" value="uscita" style="edgeLabel;html=1;align=center;verticalAlign=middle;resizable=0;points=[];fontSize=9;fontColor=#000000;" parent="mamlLjxaLS5aXIm2oJee-96" vertex="1" connectable="0">
          <mxGeometry x="0.6143" y="-1" relative="1" as="geometry">
            <mxPoint x="1" y="-2" as="offset" />
          </mxGeometry>
        </mxCell>
        <mxCell id="mamlLjxaLS5aXIm2oJee-77" value="&lt;div&gt;DRAIN COMUNE&lt;/div&gt;&lt;font style=&quot;font-size: 9px;&quot;&gt;COMMON DRAIN (CD)&lt;/font&gt;" style="whiteSpace=wrap;html=1;fontSize=11;strokeColor=#b85450;fillColor=#f8cecc;" parent="1" vertex="1">
          <mxGeometry x="1440" y="200" width="120" height="40" as="geometry" />
        </mxCell>
        <mxCell id="mamlLjxaLS5aXIm2oJee-100" style="edgeStyle=orthogonalEdgeStyle;rounded=0;orthogonalLoop=1;jettySize=auto;html=1;entryX=0;entryY=0.5;entryDx=0;entryDy=0;fontSize=9;fontColor=#000000;endArrow=block;endFill=1;" parent="1" source="mamlLjxaLS5aXIm2oJee-78" target="mamlLjxaLS5aXIm2oJee-97" edge="1">
          <mxGeometry relative="1" as="geometry">
            <Array as="points">
              <mxPoint x="1650" y="290" />
            </Array>
          </mxGeometry>
        </mxCell>
        <mxCell id="mamlLjxaLS5aXIm2oJee-106" value="ingresso" style="edgeLabel;html=1;align=center;verticalAlign=middle;resizable=0;points=[];fontSize=9;fontColor=#000000;" parent="mamlLjxaLS5aXIm2oJee-100" vertex="1" connectable="0">
          <mxGeometry x="0.3865" relative="1" as="geometry">
            <mxPoint y="-1" as="offset" />
          </mxGeometry>
        </mxCell>
        <mxCell id="mamlLjxaLS5aXIm2oJee-101" style="edgeStyle=orthogonalEdgeStyle;rounded=0;orthogonalLoop=1;jettySize=auto;html=1;entryX=0;entryY=0.5;entryDx=0;entryDy=0;fontSize=9;fontColor=#000000;endArrow=block;endFill=1;" parent="1" source="mamlLjxaLS5aXIm2oJee-78" target="mamlLjxaLS5aXIm2oJee-98" edge="1">
          <mxGeometry relative="1" as="geometry">
            <Array as="points">
              <mxPoint x="1650" y="370" />
            </Array>
          </mxGeometry>
        </mxCell>
        <mxCell id="mamlLjxaLS5aXIm2oJee-107" value="uscita" style="edgeLabel;html=1;align=center;verticalAlign=middle;resizable=0;points=[];fontSize=9;fontColor=#000000;" parent="mamlLjxaLS5aXIm2oJee-101" vertex="1" connectable="0">
          <mxGeometry x="0.6211" relative="1" as="geometry">
            <mxPoint x="1" y="-1" as="offset" />
          </mxGeometry>
        </mxCell>
        <mxCell id="mamlLjxaLS5aXIm2oJee-78" value="&lt;div&gt;GATE COMUNE&lt;/div&gt;&lt;div&gt;&lt;font style=&quot;font-size: 9px;&quot;&gt;COMMON GATE (CG)&lt;/font&gt;&lt;br&gt;&lt;/div&gt;" style="whiteSpace=wrap;html=1;fontSize=11;strokeColor=#9673a6;fillColor=#e1d5e7;" parent="1" vertex="1">
          <mxGeometry x="1640" y="200" width="120" height="40" as="geometry" />
        </mxCell>
        <mxCell id="mamlLjxaLS5aXIm2oJee-86" value="&lt;div style=&quot;font-size: 11px;&quot;&gt;&lt;font style=&quot;font-size: 11px;&quot;&gt;GATE&lt;/font&gt;&lt;/div&gt;" style="text;whiteSpace=wrap;html=1;fontSize=9;align=center;verticalAlign=middle;strokeColor=#82b366;fillColor=#d5e8d4;" parent="1" vertex="1">
          <mxGeometry x="1310" y="280" width="50" height="20" as="geometry" />
        </mxCell>
        <mxCell id="mamlLjxaLS5aXIm2oJee-87" value="&lt;font style=&quot;font-size: 11px;&quot;&gt;DRAIN&lt;/font&gt;" style="text;whiteSpace=wrap;html=1;fontSize=9;align=center;verticalAlign=middle;strokeColor=#b85450;fillColor=#f8cecc;" parent="1" vertex="1">
          <mxGeometry x="1310" y="360" width="50" height="20" as="geometry" />
        </mxCell>
        <mxCell id="mamlLjxaLS5aXIm2oJee-92" value="&lt;div style=&quot;font-size: 11px;&quot;&gt;&lt;font style=&quot;font-size: 11px;&quot;&gt;GATE&lt;/font&gt;&lt;/div&gt;" style="text;whiteSpace=wrap;html=1;fontSize=9;align=center;verticalAlign=middle;strokeColor=#82b366;fillColor=#d5e8d4;" parent="1" vertex="1">
          <mxGeometry x="1510" y="280" width="50" height="20" as="geometry" />
        </mxCell>
        <mxCell id="mamlLjxaLS5aXIm2oJee-93" value="&lt;font style=&quot;font-size: 11px;&quot;&gt;SOURCE&lt;/font&gt;" style="text;whiteSpace=wrap;html=1;fontSize=9;align=center;verticalAlign=middle;strokeColor=#b85450;fillColor=#f8cecc;" parent="1" vertex="1">
          <mxGeometry x="1510" y="360" width="50" height="20" as="geometry" />
        </mxCell>
        <mxCell id="mamlLjxaLS5aXIm2oJee-97" value="&lt;font style=&quot;font-size: 11px;&quot;&gt;SOURCE&lt;/font&gt;" style="text;whiteSpace=wrap;html=1;fontSize=9;align=center;verticalAlign=middle;strokeColor=#82b366;fillColor=#d5e8d4;" parent="1" vertex="1">
          <mxGeometry x="1710" y="280" width="50" height="20" as="geometry" />
        </mxCell>
        <mxCell id="mamlLjxaLS5aXIm2oJee-98" value="&lt;font style=&quot;font-size: 11px;&quot;&gt;DRAIN&lt;/font&gt;" style="text;whiteSpace=wrap;html=1;fontSize=9;align=center;verticalAlign=middle;strokeColor=#b85450;fillColor=#f8cecc;" parent="1" vertex="1">
          <mxGeometry x="1710" y="360" width="50" height="20" as="geometry" />
        </mxCell>
        <mxCell id="mamlLjxaLS5aXIm2oJee-110" value="" style="shape=image;verticalLabelPosition=bottom;labelBackgroundColor=default;verticalAlign=top;aspect=fixed;imageAspect=0;image=https://raw.githubusercontent.com/BCPTe/SETM/main/images/06/common_source.png;imageBorder=#969696;" parent="1" vertex="1">
          <mxGeometry x="1285" y="305" width="100" height="50" as="geometry" />
        </mxCell>
        <mxCell id="mamlLjxaLS5aXIm2oJee-111" value="" style="shape=image;verticalLabelPosition=bottom;labelBackgroundColor=default;verticalAlign=top;aspect=fixed;imageAspect=0;image=https://raw.githubusercontent.com/BCPTe/SETM/main/images/06/common_drain.png;imageBorder=#969696;" parent="1" vertex="1">
          <mxGeometry x="1485" y="305" width="100" height="50" as="geometry" />
        </mxCell>
        <mxCell id="mamlLjxaLS5aXIm2oJee-112" value="" style="shape=image;verticalLabelPosition=bottom;labelBackgroundColor=default;verticalAlign=top;aspect=fixed;imageAspect=0;image=https://raw.githubusercontent.com/BCPTe/SETM/main/images/06/common_gate.png;imageBorder=#969696;" parent="1" vertex="1">
          <mxGeometry x="1685" y="305" width="100" height="50" as="geometry" />
        </mxCell>
        <mxCell id="mamlLjxaLS5aXIm2oJee-114" value="" style="shape=table;startSize=0;container=1;collapsible=0;childLayout=tableLayout;fontSize=11;fontColor=#000000;strokeColor=default;verticalAlign=middle;swimlaneFillColor=default;" parent="1" vertex="1">
          <mxGeometry x="1230" y="430" width="570" height="180" as="geometry" />
        </mxCell>
        <mxCell id="mamlLjxaLS5aXIm2oJee-115" value="" style="shape=tableRow;horizontal=0;startSize=0;swimlaneHead=0;swimlaneBody=0;top=0;left=0;bottom=0;right=0;collapsible=0;dropTarget=0;fillColor=none;points=[[0,0.5],[1,0.5]];portConstraint=eastwest;fontSize=11;fontColor=#000000;strokeColor=default;" parent="mamlLjxaLS5aXIm2oJee-114" vertex="1">
          <mxGeometry width="570" height="26" as="geometry" />
        </mxCell>
        <mxCell id="mamlLjxaLS5aXIm2oJee-116" value="" style="shape=partialRectangle;html=1;whiteSpace=wrap;connectable=0;overflow=hidden;fillColor=#000000;top=0;left=0;bottom=0;right=0;pointerEvents=1;fontSize=11;fontColor=#000000;strokeColor=default;" parent="mamlLjxaLS5aXIm2oJee-115" vertex="1">
          <mxGeometry width="80" height="26" as="geometry">
            <mxRectangle width="80" height="26" as="alternateBounds" />
          </mxGeometry>
        </mxCell>
        <mxCell id="mamlLjxaLS5aXIm2oJee-117" value="\(A_v\)" style="shape=partialRectangle;html=1;whiteSpace=wrap;connectable=0;overflow=hidden;fillColor=#FFFFCC;top=1;left=1;bottom=1;right=1;pointerEvents=1;fontSize=11;fontColor=#000000;strokeColor=default;spacing=2;" parent="mamlLjxaLS5aXIm2oJee-115" vertex="1">
          <mxGeometry x="80" width="80" height="26" as="geometry">
            <mxRectangle width="80" height="26" as="alternateBounds" />
          </mxGeometry>
        </mxCell>
        <mxCell id="mamlLjxaLS5aXIm2oJee-118" value="\(R_{in}\)" style="shape=partialRectangle;html=1;whiteSpace=wrap;connectable=0;overflow=hidden;fillColor=#FFFFCC;top=1;left=1;bottom=1;right=1;pointerEvents=1;fontSize=11;fontColor=#000000;strokeColor=default;" parent="mamlLjxaLS5aXIm2oJee-115" vertex="1">
          <mxGeometry x="160" width="80" height="26" as="geometry">
            <mxRectangle width="80" height="26" as="alternateBounds" />
          </mxGeometry>
        </mxCell>
        <mxCell id="mamlLjxaLS5aXIm2oJee-119" value="\(R_{out}\)" style="shape=partialRectangle;html=1;whiteSpace=wrap;connectable=0;overflow=hidden;fillColor=#FFFFCC;top=1;left=1;bottom=1;right=1;pointerEvents=1;fontSize=11;fontColor=#000000;strokeColor=default;" parent="mamlLjxaLS5aXIm2oJee-115" vertex="1">
          <mxGeometry x="240" width="80" height="26" as="geometry">
            <mxRectangle width="80" height="26" as="alternateBounds" />
          </mxGeometry>
        </mxCell>
        <mxCell id="mamlLjxaLS5aXIm2oJee-120" value="commenti" style="shape=partialRectangle;html=1;whiteSpace=wrap;connectable=0;overflow=hidden;fillColor=#FFFFCC;top=1;left=1;bottom=1;right=1;pointerEvents=1;fontSize=11;fontColor=#000000;strokeColor=default;" parent="mamlLjxaLS5aXIm2oJee-115" vertex="1">
          <mxGeometry x="320" width="250" height="26" as="geometry">
            <mxRectangle width="250" height="26" as="alternateBounds" />
          </mxGeometry>
        </mxCell>
        <mxCell id="mamlLjxaLS5aXIm2oJee-121" value="" style="shape=tableRow;horizontal=0;startSize=0;swimlaneHead=0;swimlaneBody=0;top=0;left=0;bottom=0;right=0;collapsible=0;dropTarget=0;fillColor=none;points=[[0,0.5],[1,0.5]];portConstraint=eastwest;fontSize=11;fontColor=#000000;strokeColor=default;" parent="mamlLjxaLS5aXIm2oJee-114" vertex="1">
          <mxGeometry y="26" width="570" height="51" as="geometry" />
        </mxCell>
        <mxCell id="mamlLjxaLS5aXIm2oJee-122" value="&lt;div&gt;SOURCE&lt;/div&gt;&lt;div&gt;COMUNE&lt;br&gt;&lt;/div&gt;" style="shape=partialRectangle;html=1;whiteSpace=wrap;connectable=0;overflow=hidden;fillColor=#FFFFCC;top=1;left=1;bottom=1;right=1;pointerEvents=1;fontSize=11;fontColor=#000000;strokeColor=default;shadow=0;" parent="mamlLjxaLS5aXIm2oJee-121" vertex="1">
          <mxGeometry width="80" height="51" as="geometry">
            <mxRectangle width="80" height="51" as="alternateBounds" />
          </mxGeometry>
        </mxCell>
        <mxCell id="mamlLjxaLS5aXIm2oJee-123" value="$$-g_m(R\| r_o)$$" style="shape=partialRectangle;html=1;whiteSpace=wrap;connectable=0;overflow=hidden;fillColor=none;top=0;left=0;bottom=0;right=0;pointerEvents=1;fontSize=10;fontColor=#000000;strokeColor=default;" parent="mamlLjxaLS5aXIm2oJee-121" vertex="1">
          <mxGeometry x="80" width="80" height="51" as="geometry">
            <mxRectangle width="80" height="51" as="alternateBounds" />
          </mxGeometry>
        </mxCell>
        <mxCell id="mamlLjxaLS5aXIm2oJee-124" value="$$\rightarrow \infty$$" style="shape=partialRectangle;html=1;whiteSpace=wrap;connectable=0;overflow=hidden;fillColor=none;top=0;left=0;bottom=0;right=0;pointerEvents=1;fontSize=10;fontColor=#000000;strokeColor=default;" parent="mamlLjxaLS5aXIm2oJee-121" vertex="1">
          <mxGeometry x="160" width="80" height="51" as="geometry">
            <mxRectangle width="80" height="51" as="alternateBounds" />
          </mxGeometry>
        </mxCell>
        <mxCell id="mamlLjxaLS5aXIm2oJee-125" value="$$R\|r_o$$" style="shape=partialRectangle;html=1;whiteSpace=wrap;connectable=0;overflow=hidden;fillColor=none;top=0;left=0;bottom=0;right=0;pointerEvents=1;fontSize=10;fontColor=#000000;strokeColor=default;" parent="mamlLjxaLS5aXIm2oJee-121" vertex="1">
          <mxGeometry x="240" width="80" height="51" as="geometry">
            <mxRectangle width="80" height="51" as="alternateBounds" />
          </mxGeometry>
        </mxCell>
        <mxCell id="mamlLjxaLS5aXIm2oJee-126" value="&lt;div style=&quot;font-size: 9px;&quot; align=&quot;left&quot;&gt;&lt;font style=&quot;font-size: 9px;&quot;&gt;- \(R_{in} \text{ e } R_{out}\) elevate → &lt;b&gt;buon amplificatore di transconduttanza&lt;/b&gt;&lt;/font&gt;&lt;/div&gt;&lt;div style=&quot;font-size: 9px;&quot; align=&quot;left&quot;&gt;&lt;font style=&quot;font-size: 9px;&quot;&gt;- l&#39;amplificazione di tensione è invertente, anche elevata in modulo&lt;br&gt;&lt;/font&gt;&lt;/div&gt;" style="shape=partialRectangle;html=1;whiteSpace=wrap;connectable=0;overflow=hidden;fillColor=none;top=0;left=0;bottom=0;right=0;pointerEvents=1;fontSize=11;fontColor=#000000;strokeColor=default;align=left;" parent="mamlLjxaLS5aXIm2oJee-121" vertex="1">
          <mxGeometry x="320" width="250" height="51" as="geometry">
            <mxRectangle width="250" height="51" as="alternateBounds" />
          </mxGeometry>
        </mxCell>
        <mxCell id="mamlLjxaLS5aXIm2oJee-127" value="" style="shape=tableRow;horizontal=0;startSize=0;swimlaneHead=0;swimlaneBody=0;top=0;left=0;bottom=0;right=0;collapsible=0;dropTarget=0;fillColor=none;points=[[0,0.5],[1,0.5]];portConstraint=eastwest;fontSize=11;fontColor=#000000;strokeColor=default;" parent="mamlLjxaLS5aXIm2oJee-114" vertex="1">
          <mxGeometry y="77" width="570" height="52" as="geometry" />
        </mxCell>
        <mxCell id="mamlLjxaLS5aXIm2oJee-128" value="&lt;div&gt;DRAIN&lt;/div&gt;&lt;div&gt;COMUNE&lt;br&gt;&lt;/div&gt;" style="shape=partialRectangle;html=1;whiteSpace=wrap;connectable=0;overflow=hidden;fillColor=#FFFFCC;top=1;left=1;bottom=1;right=1;pointerEvents=1;fontSize=11;fontColor=#000000;strokeColor=default;shadow=0;" parent="mamlLjxaLS5aXIm2oJee-127" vertex="1">
          <mxGeometry width="80" height="52" as="geometry">
            <mxRectangle width="80" height="52" as="alternateBounds" />
          </mxGeometry>
        </mxCell>
        <mxCell id="mamlLjxaLS5aXIm2oJee-129" value="$$\frac{g_m R&#39;}{1+g_m R&#39;} &amp;lt; 1$$" style="shape=partialRectangle;html=1;whiteSpace=wrap;connectable=0;overflow=hidden;fillColor=none;top=0;left=0;bottom=0;right=0;pointerEvents=1;fontSize=10;fontColor=#000000;strokeColor=default;" parent="mamlLjxaLS5aXIm2oJee-127" vertex="1">
          <mxGeometry x="80" width="80" height="52" as="geometry">
            <mxRectangle width="80" height="52" as="alternateBounds" />
          </mxGeometry>
        </mxCell>
        <mxCell id="mamlLjxaLS5aXIm2oJee-130" value="$$\rightarrow \infty$$" style="shape=partialRectangle;html=1;whiteSpace=wrap;connectable=0;overflow=hidden;fillColor=none;top=0;left=0;bottom=0;right=0;pointerEvents=1;fontSize=10;fontColor=#000000;strokeColor=default;" parent="mamlLjxaLS5aXIm2oJee-127" vertex="1">
          <mxGeometry x="160" width="80" height="52" as="geometry">
            <mxRectangle width="80" height="52" as="alternateBounds" />
          </mxGeometry>
        </mxCell>
        <mxCell id="mamlLjxaLS5aXIm2oJee-131" value="$$\simeq \frac{1}{g_m}$$" style="shape=partialRectangle;html=1;whiteSpace=wrap;connectable=0;overflow=hidden;fillColor=none;top=0;left=0;bottom=0;right=0;pointerEvents=1;fontSize=10;fontColor=#000000;strokeColor=default;" parent="mamlLjxaLS5aXIm2oJee-127" vertex="1">
          <mxGeometry x="240" width="80" height="52" as="geometry">
            <mxRectangle width="80" height="52" as="alternateBounds" />
          </mxGeometry>
        </mxCell>
        <mxCell id="mamlLjxaLS5aXIm2oJee-132" value="&lt;div style=&quot;font-size: 9px;&quot;&gt;&lt;font style=&quot;font-size: 9px;&quot;&gt;- \(R_{in}\) elevata, \(R_{out}\) ridotta → &lt;b&gt;buon amplificatore di tensione&lt;/b&gt;&lt;/font&gt;&lt;/div&gt;&lt;div style=&quot;font-size: 9px;&quot;&gt;&lt;font style=&quot;font-size: 9px;&quot;&gt;- l&#39;amplificazione di tensione \(A_v\) è sempre \(&amp;lt;1\) in modulo&lt;/font&gt;&lt;/div&gt;" style="shape=partialRectangle;html=1;whiteSpace=wrap;connectable=0;overflow=hidden;fillColor=none;top=0;left=0;bottom=0;right=0;pointerEvents=1;fontSize=11;fontColor=#000000;strokeColor=default;align=left;" parent="mamlLjxaLS5aXIm2oJee-127" vertex="1">
          <mxGeometry x="320" width="250" height="52" as="geometry">
            <mxRectangle width="250" height="52" as="alternateBounds" />
          </mxGeometry>
        </mxCell>
        <mxCell id="mamlLjxaLS5aXIm2oJee-133" value="" style="shape=tableRow;horizontal=0;startSize=0;swimlaneHead=0;swimlaneBody=0;top=0;left=0;bottom=0;right=0;collapsible=0;dropTarget=0;fillColor=none;points=[[0,0.5],[1,0.5]];portConstraint=eastwest;fontSize=11;fontColor=#000000;strokeColor=default;" parent="mamlLjxaLS5aXIm2oJee-114" vertex="1">
          <mxGeometry y="129" width="570" height="51" as="geometry" />
        </mxCell>
        <mxCell id="mamlLjxaLS5aXIm2oJee-134" value="&lt;div&gt;GATE&lt;/div&gt;&lt;div&gt;COMUNE&lt;/div&gt;" style="shape=partialRectangle;html=1;whiteSpace=wrap;connectable=0;overflow=hidden;fillColor=#FFFFCC;top=1;left=1;bottom=1;right=1;pointerEvents=1;fontSize=11;fontColor=#000000;strokeColor=default;shadow=0;" parent="mamlLjxaLS5aXIm2oJee-133" vertex="1">
          <mxGeometry width="80" height="51" as="geometry">
            <mxRectangle width="80" height="51" as="alternateBounds" />
          </mxGeometry>
        </mxCell>
        <mxCell id="mamlLjxaLS5aXIm2oJee-135" value="$$\simeq g_m(R\| r_o)$$" style="shape=partialRectangle;html=1;whiteSpace=wrap;connectable=0;overflow=hidden;fillColor=none;top=0;left=0;bottom=0;right=0;pointerEvents=1;fontSize=10;fontColor=#000000;strokeColor=default;" parent="mamlLjxaLS5aXIm2oJee-133" vertex="1">
          <mxGeometry x="80" width="80" height="51" as="geometry">
            <mxRectangle width="80" height="51" as="alternateBounds" />
          </mxGeometry>
        </mxCell>
        <mxCell id="mamlLjxaLS5aXIm2oJee-136" value="$$\simeq \frac{1}{g_m}$$" style="shape=partialRectangle;html=1;whiteSpace=wrap;connectable=0;overflow=hidden;fillColor=none;top=0;left=0;bottom=0;right=0;pointerEvents=1;fontSize=10;fontColor=#000000;strokeColor=default;" parent="mamlLjxaLS5aXIm2oJee-133" vertex="1">
          <mxGeometry x="160" width="80" height="51" as="geometry">
            <mxRectangle width="80" height="51" as="alternateBounds" />
          </mxGeometry>
        </mxCell>
        <mxCell id="mamlLjxaLS5aXIm2oJee-137" value="$$R\|r_o$$" style="shape=partialRectangle;html=1;whiteSpace=wrap;connectable=0;overflow=hidden;fillColor=none;top=0;left=0;bottom=0;right=0;pointerEvents=1;fontSize=10;fontColor=#000000;strokeColor=default;" parent="mamlLjxaLS5aXIm2oJee-133" vertex="1">
          <mxGeometry x="240" width="80" height="51" as="geometry">
            <mxRectangle width="80" height="51" as="alternateBounds" />
          </mxGeometry>
        </mxCell>
        <mxCell id="mamlLjxaLS5aXIm2oJee-138" value="&lt;div style=&quot;font-size: 9px;&quot; align=&quot;left&quot;&gt;&lt;font style=&quot;font-size: 9px;&quot;&gt;- \(R_{in}\) ridotta, \(R_{out}\) elevata → &lt;b&gt;buon amplificatore di corrente&lt;/b&gt;&lt;br&gt;&lt;/font&gt;&lt;/div&gt;&lt;div style=&quot;font-size: 9px;&quot; align=&quot;left&quot;&gt;&lt;font style=&quot;font-size: 9px;&quot;&gt;- l&#39;amplificazione di tensione \(A_v\) è non invertente e pùo essere elevata&lt;br&gt;&lt;/font&gt;&lt;/div&gt;" style="shape=partialRectangle;html=1;whiteSpace=wrap;connectable=0;overflow=hidden;fillColor=none;top=0;left=0;bottom=0;right=0;pointerEvents=1;fontSize=11;fontColor=#000000;strokeColor=default;align=left;" parent="mamlLjxaLS5aXIm2oJee-133" vertex="1">
          <mxGeometry x="320" width="250" height="51" as="geometry">
            <mxRectangle width="250" height="51" as="alternateBounds" />
          </mxGeometry>
        </mxCell>
        <mxCell id="LDA_1cCVIODJHaGO12al-1" value="è possibile ottenere amplificatori con caratteristiche diverse collegando in cascata (o in altro modo) più stadi elementari" style="whiteSpace=wrap;html=1;fontSize=9;fillColor=#f5f5f5;fontColor=#333333;strokeColor=#666666;" vertex="1" parent="1">
          <mxGeometry x="2120" y="30" width="190" height="40" as="geometry" />
        </mxCell>
      </root>
    </mxGraphModel>
  </diagram>
</mxfile>
